<?xml version='1.0' encoding='utf-8'?>
<svg xmlns="http://www.w3.org/2000/svg" version="1.0" width="1024.000000pt" height="1024.000000pt" viewBox="0 0 1024.000000 1024.000000" preserveAspectRatio="xMidYMid meet">

<g transform="translate(0.000000,1024.000000) scale(0.100000,-0.100000)" fill="#000000" stroke="none">
<path d="M8440 6736 c-36 -13 -137 -54 -225 -91 -88 -37 -203 -85 -255 -107 -52 -22 -99 -43 -104 -48 -4 -4 10 -25 33 -45 58 -52 67 -90 53 -218 -22 -203 -184 -1226 -222 -1399 -23 -104 -44 -148 -104 -215 -25 -28 -46 -54 -46 -57 0 -3 137 -6 305 -6 168 0 305 2 305 5 0 3 -15 25 -34 50 -62 80 -60 121 25 633 62 378 75 420 143 488 76 77 147 91 222 45 42 -25 56 -83 44 -171 -5 -36 -30 -173 -54 -305 -25 -132 -64 -343 -86 -470 -22 -126 -43 -240 -46 -252 l-6 -23 261 0 c163 0 261 4 261 10 0 5 -10 16 -23 25 -13 8 -34 34 -48 57 -35 62 -32 173 10 398 18 96 50 267 71 380 67 360 64 453 -18 568 -41 56 -94 77 -197 77 -133 0 -228 -41 -367 -157 -27 -22 -48 -37 -48 -34 0 6 58 350 84 496 26 148 39 192 87 290 26 52 46 96 46 97 -1 1 -31 -9 -67 -21z" fill="none" stroke="#a5b4fc" stroke-width="2.2" stroke-linecap="round" stroke-linejoin="round" vector-effect="non-scaling-stroke" />
<path d="M1368 6632 c-43 -2 -78 -7 -78 -11 0 -5 28 -19 62 -32 74 -27 134 -78 159 -134 39 -85 24 -201 -137 -1070 -92 -497 -136 -715 -153 -767 -27 -81 -73 -142 -141 -188 -33 -23 -60 -45 -60 -50 0 -11 787 -14 815 -4 13 5 4 17 -39 56 -61 54 -86 111 -86 195 0 23 29 201 65 395 80 441 76 419 89 415 6 -1 58 -144 116 -318 58 -173 125 -368 149 -434 203 -558 520 -895 981 -1045 190 -62 282 -75 540 -75 393 0 638 46 1300 242 157 46 353 104 435 128 353 104 797 198 1082 229 233 26 549 37 733 27 460 -27 760 -119 931 -284 93 -90 116 -171 87 -296 -6 -28 -8 -54 -4 -58 4 -5 51 15 104 42 125 65 218 150 257 236 51 115 23 239 -78 340 -61 62 -201 132 -330 164 -279 70 -865 108 -1327 86 -562 -27 -934 -76 -1600 -212 -1016 -207 -1063 -214 -1410 -214 -203 0 -273 4 -345 18 -256 50 -481 160 -648 316 -124 115 -248 312 -308 489 -64 186 -269 822 -269 833 0 21 291 313 467 468 329 289 629 437 956 473 59 6 115 17 124 23 13 10 -120 14 -633 17 -357 2 -650 3 -652 2 -2 -1 9 -21 24 -44 43 -64 44 -132 6 -209 -40 -80 -155 -227 -377 -479 -99 -113 -202 -231 -230 -263 -27 -32 -53 -58 -56 -58 -6 -1 76 412 137 694 40 183 64 223 195 327 l34 27 -370 1 c-203 1 -386 2 -405 3 -19 1 -70 1 -112 -1z" fill="none" stroke="#a5b4fc" stroke-width="2.2" stroke-linecap="round" stroke-linejoin="round" vector-effect="non-scaling-stroke" />
<path d="M3146 6054 c-261 -63 -475 -334 -552 -699 -23 -111 -24 -355 -1 -449 38 -155 132 -284 247 -339 74 -36 177 -49 277 -37 244 30 480 269 581 590 41 130 56 231 56 390 0 111 -3 149 -22 215 -53 183 -152 290 -307 331 -64 18 -203 16 -279 -2z m198 -176 c62 -27 92 -167 76 -341 -32 -325 -127 -629 -233 -744 -50 -54 -84 -73 -132 -73 -122 0 -165 125 -130 375 31 225 99 474 166 607 78 156 165 217 253 176z" fill="none" stroke="#a5b4fc" stroke-width="2.2" stroke-linecap="round" stroke-linejoin="round" vector-effect="non-scaling-stroke" />
<path d="M5843 6059 c-22 -4 -61 -18 -84 -30 -42 -21 -181 -153 -227 -214 l-22 -30 6 40 c6 38 44 169 59 208 7 16 -9 17 -239 17 -135 0 -246 -4 -246 -9 0 -5 7 -14 16 -22 29 -24 54 -87 54 -136 0 -59 -30 -242 -114 -705 -68 -370 -101 -504 -142 -577 -13 -24 -24 -45 -24 -47 0 -2 128 -4 285 -4 157 0 285 3 285 6 0 3 -20 25 -43 48 -80 78 -78 152 19 666 59 314 71 349 140 387 52 30 95 29 133 -2 25 -22 30 -34 33 -78 l3 -52 38 63 c22 34 68 102 104 150 85 113 113 170 113 226 0 76 -54 111 -147 95z" fill="none" stroke="#a5b4fc" stroke-width="2.2" stroke-linecap="round" stroke-linejoin="round" vector-effect="non-scaling-stroke" />
<path d="M6345 6042 c-190 -57 -361 -220 -475 -457 -91 -188 -127 -352 -117 -539 7 -132 26 -207 74 -299 138 -262 505 -299 757 -76 118 104 226 276 279 445 83 263 77 564 -15 736 -40 76 -122 150 -196 179 -79 30 -223 36 -307 11z m185 -197 c42 -26 63 -158 50 -316 -43 -492 -203 -837 -375 -805 -110 21 -141 159 -95 430 66 387 198 679 321 705 32 7 75 1 99 -14z" fill="none" stroke="#a5b4fc" stroke-width="2.2" stroke-linecap="round" stroke-linejoin="round" vector-effect="non-scaling-stroke" />
<path d="M7303 6045 c-215 -47 -341 -246 -305 -480 20 -130 70 -220 241 -435 141 -178 166 -247 120 -330 -38 -67 -136 -100 -213 -70 -63 24 -141 135 -181 258 -10 29 -22 51 -28 49 -5 -1 -31 -52 -57 -113 -25 -60 -63 -145 -84 -188 -42 -88 -45 -79 44 -125 95 -49 185 -72 305 -78 240 -11 395 70 482 253 31 65 37 88 41 168 9 173 -26 254 -209 481 -138 171 -169 226 -169 302 0 65 10 92 49 130 81 82 216 32 277 -101 13 -29 29 -88 35 -131 6 -44 15 -84 19 -88 3 -4 18 23 33 60 31 82 117 352 117 370 0 15 -140 60 -229 73 -91 13 -214 11 -288 -5z" fill="none" stroke="#a5b4fc" stroke-width="2.2" stroke-linecap="round" stroke-linejoin="round" vector-effect="non-scaling-stroke" />
<path d="M3844 6007 c91 -111 89 -163 -29 -782 -61 -317 -73 -425 -56 -499 16 -72 62 -133 126 -165 43 -23 62 -26 145 -26 85 1 103 4 155 30 36 17 91 59 141 107 l81 78 6 -57 c4 -32 12 -76 20 -98 l14 -40 186 -3 c103 -1 187 0 187 3 0 3 -11 27 -24 53 -51 102 -50 111 80 772 86 441 111 545 145 612 11 21 19 42 19 48 0 7 -85 10 -255 10 -140 0 -255 -3 -255 -6 0 -3 11 -19 25 -36 13 -16 30 -47 36 -69 15 -49 10 -83 -72 -524 -69 -365 -92 -467 -120 -512 -63 -102 -190 -131 -249 -56 -15 19 -20 41 -20 85 0 56 153 853 185 965 8 28 31 72 50 97 19 26 35 48 35 51 0 3 -133 5 -296 5 l-295 0 35 -43z" fill="none" stroke="#a5b4fc" stroke-width="2.2" stroke-linecap="round" stroke-linejoin="round" vector-effect="non-scaling-stroke" />
</g>
</svg>